<svg width="20" height="21" viewBox="0 0 20 21" fill="none" xmlns="http://www.w3.org/2000/svg">
<path d="M9.16667 12.3857L8.95833 7.38565H11.0417L10.8333 12.3857H9.16667ZM11.25 14.8857C11.25 15.2172 11.1183 15.5351 10.8839 15.7695C10.6495 16.004 10.3315 16.1357 10 16.1357C9.66848 16.1357 9.35054 16.004 9.11612 15.7695C8.8817 15.5351 8.75 15.2172 8.75 14.8857C8.75 14.5541 8.8817 14.2362 9.11612 14.0018C9.35054 13.7673 9.66848 13.6357 10 13.6357C10.3315 13.6357 10.6495 13.7673 10.8839 14.0018C11.1183 14.2362 11.25 14.5541 11.25 14.8857Z" fill="#FF7A00"/>
<path fill-rule="evenodd" clip-rule="evenodd" d="M8.94752 2.55066C9.63198 2.33093 10.3681 2.33093 11.0525 2.55066C11.7809 2.784 12.3167 3.3315 12.8025 3.994C13.2842 4.65233 13.8109 5.55983 14.4675 6.69066L17.2425 11.4732C17.89 12.5882 18.4092 13.484 18.7367 14.219C19.0667 14.9607 19.2709 15.684 19.1117 16.4157C18.9594 17.106 18.5913 17.73 18.0609 18.1973C17.495 18.6973 16.7559 18.8815 15.9384 18.9673C15.1284 19.0523 14.08 19.0523 12.7759 19.0523H7.22419C5.92002 19.0523 4.87169 19.0523 4.06169 18.9673C3.24502 18.8815 2.50502 18.6973 1.93919 18.1973C1.40902 17.7299 1.04129 17.1059 0.889188 16.4157C0.729188 15.684 0.933354 14.9598 1.26335 14.219C1.59002 13.484 2.11002 12.5882 2.75752 11.4732L5.53252 6.68983C6.18919 5.56066 6.71669 4.65233 7.19752 3.994C7.68419 3.3315 8.21919 2.78483 8.94752 2.55066ZM10.5267 4.139C10.1842 4.02895 9.81584 4.02895 9.47335 4.139C9.26835 4.20483 8.99835 4.3915 8.57335 4.97233C8.15085 5.549 7.66752 6.37816 6.98002 7.56316L4.25585 12.2582C3.57752 13.4273 3.10335 14.2465 2.81669 14.8898C2.52919 15.5348 2.50252 15.8565 2.54752 16.0632C2.62252 16.4073 2.80585 16.719 3.07252 16.9548C3.23252 17.0965 3.52919 17.2315 4.24169 17.3065C4.95002 17.3807 5.90835 17.3815 7.27502 17.3815H12.725C14.0917 17.3815 15.05 17.3807 15.7584 17.3065C16.4709 17.2315 16.7667 17.0957 16.9275 16.9548C17.1942 16.719 17.3775 16.4073 17.4525 16.0632C17.4975 15.8565 17.4709 15.5348 17.1834 14.889C16.8967 14.2465 16.4225 13.4273 15.7442 12.2582L13.0192 7.56316C12.3325 6.37816 11.8492 5.549 11.4267 4.9715C11.0017 4.3915 10.7317 4.20566 10.5267 4.139Z" fill="#FF7A00"/>
</svg>
